#!OML:ASF X:\für Bonn\!DataBase\2005_08_10_Bjorn_Final\c3d\bjorn.ASF
:FULLY-SPECIFIED
:DEGREES
451
root -0.509092 1.40375 22.6291 -448.255 -172.419 373.087
lowerback 42.8627 6.04935 7.13197
upperback 24.7876 0.416697 0.526541
thorax 7.93554 -3.92252 -3.8477
lowerneck 4.01981 3.45661 2.65304
upperneck 15.2207 3.16591 2.58343
head 4.30672 1.29286 0.444839
rclavicle 1.03368e-014 7.31528e-014
rhumerus -163.901 -157.892 106.661
rradius 18.2546
rwrist 18.0653
rhand 2.56637 7.85989
rfingers 7.12502
rthumb 28.0461 -20.0639
lclavicle 1.03368e-014 7.31528e-014
lhumerus -348.357 -20.7562 -288.327
lradius 40.9753
lwrist -20.5223
lhand -34.9336 -18.4053
lfingers 7.12502
lthumb -8.08065 11.4202
rfemur -50.8077 -23.3957 -6.07126
rtibia 110.656
rfoot 40.7425 17.6819
rtoes -10.9266
lfemur -58.1564 3.58682 -15.9389
ltibia 111.15
lfoot 29.0724 11.066
ltoes 12.744
452
root -0.512137 1.40299 22.6526 -448.611 -172.426 373.235
lowerback 42.5082 6.08769 6.82979
upperback 24.6943 0.483775 0.4451
thorax 7.89363 -3.85741 -3.79389
lowerneck 4.18782 3.17384 2.62471
upperneck 15.2098 2.74666 2.7933
head 4.26696 1.08323 0.506216
rclavicle 1.90833e-014 -3.18055e-015
rhumerus -164.4 -158.635 107.215
rradius 18.5954
rwrist 17.0166
rhand 2.41415 8.07486
rfingers 7.12502
rthumb 27.9006 -19.8727
lclavicle 1.90833e-014 -3.18055e-015
lhumerus -348.794 -20.3581 -287.766
lradius 40.6923
lwrist -20.7782
lhand -34.9511 -18.4728
lfingers 7.12502
lthumb -8.0976 11.3521
rfemur -50.1865 -23.474 -6.2806
rtibia 110.409
rfoot 40.7972 17.7349
rtoes -11.0816
lfemur -57.65 3.59339 -15.9398
ltibia 110.948
lfoot 29.0283 11.0673
ltoes 12.6722
453
root -0.515411 1.40346 22.6761 -449.003 -172.454 373.36
lowerback 42.1537 6.14281 6.50453
upperback 24.6121 0.556537 0.381317
thorax 7.86594 -3.79895 -3.71204
lowerneck 4.37784 2.90838 2.59482
upperneck 15.199 2.35184 2.98447
head 4.22477 0.883447 0.562553
rclavicle 5.725e-014 -1.90833e-014
rhumerus -164.857 -159.517 107.828
rradius 18.938
rwrist 15.8148
rhand 2.23731 8.22067
rfingers 7.12502
rthumb 27.7315 -19.7542
lclavicle 5.725e-014 -1.90833e-014
lhumerus -349.241 -19.9155 -287.208
lradius 40.3911
lwrist -20.9743
lhand -34.9775 -18.6188
lfingers 7.12502
lthumb -8.12309 11.205
rfemur -49.5101 -23.5356 -6.50255
rtibia 110.154
rfoot 40.8491 17.8132
rtoes -11.2262
lfemur -57.1011 3.61681 -15.909
ltibia 110.749
lfoot 28.9949 11.0366
ltoes 12.7345
454
root -0.51833 1.40335 22.6999 -449.431 -172.539 373.528
lowerback 41.8244 6.16724 6.24958
upperback 24.5294 0.613486 0.333644
thorax 7.83734 -3.74416 -3.64347
lowerneck 4.5938 2.6405 2.62439
upperneck 15.1929 1.95603 3.13873
head 4.18222 0.683215 0.596687
rclavicle 4.13472e-014 -3.81667e-014
rhumerus -165.258 -160.278 108.391
rradius 19.2468
rwrist 14.6293
rhand 2.08692 8.35296
rfingers 7.12502
rthumb 27.5877 -19.645
lclavicle 4.13472e-014 -3.81667e-014
lhumerus -349.685 -19.4732 -286.672
lradius 40.1374
lwrist -21.0987
lhand -34.9243 -18.7358
lfingers 7.12502
lthumb -8.07171 11.0901
rfemur -48.7807 -23.6009 -6.66641
rtibia 109.905
rfoot 40.8407 17.9225
rtoes -11.5623
lfemur -56.5097 3.63866 -15.8102
ltibia 110.543
lfoot 28.9693 10.9438
ltoes 12.5523
455
root -0.521173 1.40454 22.7243 -449.879 -172.625 373.681
lowerback 41.4808 6.19726 5.96361
upperback 24.4562 0.663743 0.290584
thorax 7.82272 -3.69894 -3.55333
lowerneck 4.89414 2.39898 2.62598
upperneck 15.1194 1.60519 3.28065
head 4.09945 0.501844 0.631735
rclavicle -1.82882e-014 8.90555e-014
rhumerus -165.577 -160.969 108.911
rradius 19.5151
rwrist 13.6235
rhand 1.9115 8.41649
rfingers 7.12502
rthumb 27.4199 -19.6081
lclavicle -1.82882e-014 8.90555e-014
lhumerus -350.13 -19.0156 -286.165
lradius 39.8825
lwrist -21.1281
lhand -34.9804 -18.7878
lfingers 7.12502
lthumb -8.12586 11.0359
rfemur -48.0095 -23.634 -6.84924
rtibia 109.641
rfoot 40.8327 17.9838
rtoes -11.6411
lfemur -55.8796 3.66287 -15.6988
ltibia 110.335
lfoot 28.9106 10.8668
ltoes 12.573
